<svg xmlns="http://www.w3.org/2000/svg" xmlns:xlink="http://www.w3.org/1999/xlink" width="250" zoomAndPan="magnify" viewBox="0 0 187.5 74.999997" height="100" preserveAspectRatio="xMidYMid meet" version="1.0"><defs><g/><clipPath id="216a28fcf2"><path d="M 83.550781 23 L 94 23 L 94 32 L 83.550781 32 Z M 83.550781 23 " clip-rule="nonzero"/></clipPath><clipPath id="7dd4baf8d0"><path d="M 85 30 L 103.800781 30 L 103.800781 52.601562 L 85 52.601562 Z M 85 30 " clip-rule="nonzero"/></clipPath></defs><g clip-path="url(#216a28fcf2)"><path fill="#010101" d="M 89.203125 28.515625 C 89.167969 28.472656 89.089844 29.675781 89.089844 30.042969 C 89.089844 30.0625 89.078125 30.246094 89.011719 30.3125 C 88.9375 30.386719 88.832031 30.324219 88.792969 30.121094 C 88.589844 29.09375 88.550781 28.746094 88.632812 28.386719 C 88.445312 28.5625 87.851562 29.671875 87.699219 29.582031 C 87.65625 29.558594 87.617188 29.496094 87.609375 29.398438 C 87.585938 29.035156 88.0625 28.109375 88.289062 27.789062 C 87.125 28.496094 86.007812 30.847656 87.777344 30.886719 C 87.960938 32.277344 89.136719 32.25 89.785156 30.652344 C 90.289062 31.246094 90.953125 30.484375 90.839844 29.691406 C 90.746094 28.992188 89.757812 27.816406 89.082031 27.742188 C 89.878906 28.386719 90.023438 28.929688 89.878906 29.078125 C 89.796875 29.164062 89.355469 28.699219 89.203125 28.515625 Z M 87.769531 27.042969 C 87.042969 26.351562 86.164062 26.414062 85.34375 26.707031 C 84.671875 26.949219 84.175781 27.4375 84.488281 28.136719 C 83.546875 28.539062 83.789062 29.542969 84.839844 29.449219 C 84.917969 30.050781 85.449219 30.453125 85.925781 30.0625 C 86.878906 29.28125 86.496094 28.386719 88.164062 27.664062 C 87.523438 27.816406 87.097656 28.078125 86.832031 28.289062 C 86.6875 28.40625 86.496094 28.726562 86.328125 28.613281 C 85.90625 28.324219 86.933594 27.65625 87.328125 27.511719 C 87.058594 27.5 86.242188 27.582031 86.03125 27.453125 C 85.507812 27.128906 86.746094 26.957031 86.914062 26.949219 C 87.351562 26.929688 87.765625 27.042969 87.769531 27.042969 Z M 87.832031 25.886719 C 87.824219 25.65625 87.710938 24.925781 87.917969 24.839844 C 88.164062 24.734375 88.183594 26.054688 88.167969 26.195312 C 88.164062 26.230469 88.203125 26.296875 88.246094 26.308594 C 88.53125 26.386719 88.347656 23.871094 88.269531 23.585938 C 88.070312 22.894531 87.40625 23.144531 87.175781 23.503906 C 86.867188 23.332031 86.570312 23.265625 86.3125 23.285156 C 85.683594 23.328125 85.277344 23.863281 85.445312 24.523438 C 85.144531 24.605469 84.949219 24.703125 84.828125 24.804688 C 84.492188 25.074219 84.578125 25.410156 84.773438 25.707031 C 85.542969 26.882812 86.785156 25.367188 87.988281 26.859375 C 88.023438 26.90625 88.144531 27.023438 88.105469 26.851562 C 88.097656 26.808594 88.082031 26.753906 88.050781 26.695312 C 87.914062 26.402344 87.515625 25.933594 86.492188 25.671875 C 86.289062 25.503906 86.480469 25.417969 86.601562 25.417969 C 86.820312 25.417969 87.28125 25.65625 87.832031 25.886719 Z M 89.164062 27.109375 C 89.164062 26.957031 89.039062 26.832031 88.882812 26.832031 C 88.730469 26.832031 88.605469 26.957031 88.605469 27.109375 C 88.605469 27.265625 88.730469 27.390625 88.882812 27.390625 C 89.039062 27.390625 89.164062 27.265625 89.164062 27.109375 Z M 89.933594 25.878906 C 90.042969 25.90625 90.710938 25.269531 91.074219 25.160156 C 91.199219 25.121094 91.320312 25.109375 91.339844 25.195312 C 91.394531 25.460938 90.0625 26.175781 89.78125 26.695312 C 91.207031 25.714844 91.902344 25.933594 92.550781 25.757812 C 93.578125 25.484375 92.441406 24.4375 92.023438 24.113281 C 92.109375 22.601562 90.601562 22.980469 90.632812 23.589844 C 90.394531 23.289062 90.089844 23.226562 89.839844 23.261719 C 89.117188 23.367188 89.175781 24.34375 89.25 25.195312 C 89.289062 25.640625 89.351562 25.882812 89.410156 26.359375 C 89.410156 26.359375 89.578125 25.832031 90.039062 24.910156 C 90.105469 24.777344 90.160156 24.554688 90.351562 24.613281 C 90.523438 24.671875 89.976562 25.378906 89.90625 25.628906 C 89.90625 25.628906 89.839844 25.855469 89.933594 25.878906 Z M 89.625 27.695312 C 89.511719 27.640625 90.976562 28.421875 91.210938 29.996094 C 91.210938 29.996094 92.011719 30.953125 92.695312 29.195312 C 93.839844 29.203125 93.917969 28.152344 93.230469 27.695312 C 93.558594 25.375 90.78125 26.292969 89.789062 27.164062 C 90.132812 27.058594 91.492188 26.515625 91.652344 26.714844 C 91.734375 26.824219 91.699219 27.027344 90.765625 27.304688 C 91.128906 27.386719 92.132812 27.5 92.265625 27.785156 C 92.542969 28.378906 90.996094 27.757812 90.847656 27.710938 C 91.050781 27.910156 91.617188 28.355469 91.636719 28.589844 C 91.660156 28.921875 91.335938 28.792969 91.277344 28.730469 C 91.066406 28.488281 90.523438 27.945312 89.625 27.695312 Z M 89.625 27.695312 " fill-opacity="1" fill-rule="evenodd"/></g><g clip-path="url(#7dd4baf8d0)"><path fill="#010101" d="M 87.417969 31.285156 C 87.085938 31.21875 86.789062 31.058594 86.601562 30.75 C 86.496094 30.578125 86.441406 30.386719 86.425781 30.1875 C 86.355469 30.261719 86.285156 30.328125 86.199219 30.398438 C 86.15625 30.433594 86.109375 30.464844 86.066406 30.492188 C 85.554688 31.632812 85.21875 32.859375 85.070312 34.085938 C 85.027344 34.65625 85.042969 35.21875 85.101562 35.769531 C 85.417969 38.59375 87.054688 40.832031 89.238281 42.695312 C 91.847656 44.921875 95.238281 46.609375 98.09375 48.109375 C 100.949219 49.609375 103.269531 50.917969 103.746094 52.390625 C 103.757812 52.425781 103.769531 52.457031 103.777344 52.492188 L 103.777344 52.5 C 103.785156 52.527344 103.792969 52.5625 103.800781 52.59375 C 103.328125 50.28125 100.6875 48.589844 97.628906 46.839844 C 94.890625 45.273438 91.8125 43.65625 89.652344 41.503906 C 89.324219 41.179688 89.019531 40.84375 88.738281 40.492188 C 87.464844 38.894531 86.84375 36.917969 86.867188 34.9375 C 86.878906 33.804688 87.105469 32.667969 87.535156 31.605469 C 87.484375 31.503906 87.449219 31.394531 87.417969 31.285156 Z M 87.417969 31.285156 " fill-opacity="1" fill-rule="evenodd"/></g><path fill="#010101" d="M 93.683594 27.507812 C 93.808594 27.628906 93.910156 27.773438 93.984375 27.925781 C 95.328125 27.945312 96.691406 28.035156 97.945312 28.003906 C 98.28125 27.976562 98.617188 27.9375 98.953125 27.886719 C 97.484375 28.953125 95.785156 29.640625 94.0625 30.285156 C 92.992188 30.683594 91.890625 31.070312 90.867188 31.578125 C 90.398438 31.808594 89.933594 32.074219 89.515625 32.386719 C 88.523438 33.125 87.910156 34.007812 87.675781 35.238281 C 87.507812 36.128906 87.640625 37.050781 87.894531 37.941406 C 86.921875 34.027344 90.386719 32.414062 90.386719 32.414062 C 91.554688 31.710938 93.058594 31.210938 94.636719 30.613281 C 93.683594 31.703125 93.644531 33.484375 93.945312 34.855469 C 93.519531 32.667969 94.238281 31.027344 95.308594 30.363281 C 95.5625 33.050781 98.34375 31.828125 97.046875 30.53125 C 97.207031 30.75 97.265625 30.953125 97.257812 31.128906 C 97.210938 30.96875 97.109375 30.785156 96.933594 30.589844 C 97.296875 31.074219 97.15625 31.5 96.855469 31.664062 C 96.15625 32.039062 95.34375 30.894531 95.886719 30.199219 C 95.921875 30.152344 95.964844 30.109375 96.007812 30.066406 C 96.082031 30.035156 96.152344 30.003906 96.226562 29.972656 C 97.125 29.785156 98.078125 30.058594 98.714844 30.777344 C 98.304688 30.097656 97.582031 29.742188 96.832031 29.699219 C 98.269531 29.023438 99.667969 28.160156 100.832031 26.890625 C 100.832031 26.890625 98.71875 27.800781 95.058594 27.484375 C 95.269531 27.476562 95.496094 27.464844 95.734375 27.445312 L 95.777344 27.441406 C 96.222656 27.402344 100.203125 26.988281 102.246094 24.59375 C 102.191406 24.652344 102.128906 24.710938 102.082031 24.757812 C 101.734375 25.082031 101.328125 25.359375 100.917969 25.585938 C 98.867188 26.726562 96.210938 26.984375 93.675781 27.089844 C 93.691406 27.226562 93.691406 27.367188 93.683594 27.507812 Z M 93.683594 27.507812 " fill-opacity="1" fill-rule="evenodd"/><path fill="#010101" d="M 93.320312 25.703125 C 95.265625 25.097656 97.128906 25.148438 97.128906 25.148438 C 95.730469 24.828125 94.449219 24.761719 93.289062 24.898438 C 93.390625 25.109375 93.433594 25.335938 93.371094 25.5625 C 93.359375 25.613281 93.339844 25.65625 93.320312 25.703125 Z M 93.320312 25.703125 " fill-opacity="1" fill-rule="evenodd"/><path fill="#010101" d="M 92.40625 35.5 C 91.527344 35.003906 90.574219 34.570312 89.714844 35.355469 C 89.226562 35.800781 89.089844 36.488281 89.25 37.113281 C 89.453125 37.925781 90.144531 38.757812 90.683594 39.378906 C 91.449219 40.261719 92.265625 41.09375 92.988281 42.019531 C 93.585938 42.792969 94.128906 43.625 94.46875 44.542969 C 94.558594 44.003906 94.546875 43.476562 94.460938 42.902344 C 94.363281 42.226562 94.167969 41.546875 94.152344 40.863281 C 94.132812 39.933594 94.460938 39.207031 95.0625 38.511719 C 95.496094 38.011719 96.027344 37.578125 96.5625 37.191406 C 97.347656 36.628906 98.199219 36.136719 99.050781 35.679688 C 99.351562 35.519531 99.660156 35.363281 99.964844 35.207031 C 100.210938 35.078125 100.460938 34.949219 100.703125 34.808594 C 101.003906 34.628906 101.371094 34.386719 101.523438 34.054688 C 101.625 33.835938 101.625 33.59375 101.582031 33.359375 C 101.511719 32.972656 101.328125 32.566406 101.152344 32.222656 C 100.589844 31.128906 100.476562 30.105469 101.019531 28.988281 C 101.289062 28.433594 101.660156 27.949219 101.992188 27.433594 C 102.421875 26.757812 102.640625 26.074219 102.5625 25.425781 C 102.566406 25.832031 102.46875 26.246094 102.253906 26.667969 C 102.132812 26.898438 101.988281 27.113281 101.828125 27.3125 C 101.609375 27.597656 101.363281 27.855469 101.113281 28.109375 C 100.898438 28.332031 100.671875 28.554688 100.480469 28.792969 C 100.257812 29.066406 100.136719 29.382812 100.082031 29.726562 C 100.066406 29.835938 100.054688 29.949219 100.054688 30.0625 C 100.035156 30.574219 100.140625 31.089844 100.25 31.589844 C 100.296875 31.792969 100.34375 32.007812 100.367188 32.214844 C 100.386719 32.378906 100.398438 32.578125 100.3125 32.726562 C 100.289062 32.769531 100.257812 32.808594 100.222656 32.84375 C 99.953125 33.117188 99.449219 33.089844 99.097656 33.074219 C 98.890625 33.0625 98.484375 33.023438 98.296875 33.089844 C 98.285156 33.09375 98.277344 33.097656 98.269531 33.105469 C 98.171875 33.1875 98.171875 33.472656 98.179688 33.585938 C 98.1875 33.773438 98.21875 33.964844 98.257812 34.148438 L 98.359375 34.636719 L 97.945312 34.359375 C 97.832031 34.28125 97.695312 34.207031 97.566406 34.15625 C 97.484375 34.125 97.207031 34.023438 97.152344 34.136719 C 97.070312 34.304688 97.140625 34.5625 97.191406 34.730469 L 97.289062 35.03125 L 96.976562 34.992188 C 96.796875 34.972656 95.949219 34.855469 95.820312 35.050781 C 95.777344 35.117188 95.757812 35.261719 95.746094 35.339844 C 95.710938 35.539062 95.667969 35.714844 95.578125 35.894531 C 95.261719 36.523438 94.648438 36.558594 94.050781 36.363281 C 93.769531 36.269531 93.496094 36.128906 93.242188 35.984375 C 92.957031 35.824219 92.683594 35.65625 92.40625 35.5 Z M 92.40625 35.5 " fill-opacity="1" fill-rule="evenodd"/><g fill="#000000" fill-opacity="1"><g transform="translate(97.506705, 42.875866)"><g><path d="M -0.53125 -3.0625 C -0.457031 -3.070312 -0.390625 -3.078125 -0.328125 -3.078125 C -0.273438 -3.085938 -0.222656 -3.085938 -0.171875 -3.078125 C -0.117188 -3.066406 -0.0625 -3.050781 0 -3.03125 C 0.207031 -2.945312 0.316406 -2.734375 0.328125 -2.390625 C 0.328125 -2.242188 0.3125 -2.09375 0.28125 -1.9375 C 0.320312 -1.957031 0.359375 -1.972656 0.390625 -1.984375 C 0.421875 -1.992188 0.460938 -2.007812 0.515625 -2.03125 C 0.566406 -2.050781 0.625 -2.035156 0.6875 -1.984375 C 0.757812 -1.941406 0.816406 -1.875 0.859375 -1.78125 C 0.910156 -1.695312 0.953125 -1.597656 0.984375 -1.484375 C 1.015625 -1.367188 1.023438 -1.253906 1.015625 -1.140625 C 0.984375 -0.835938 0.851562 -0.59375 0.625 -0.40625 C 0.59375 -0.375 0.566406 -0.351562 0.546875 -0.34375 C 0.535156 -0.34375 0.53125 -0.34375 0.53125 -0.34375 C 0.53125 -0.34375 0.519531 -0.332031 0.5 -0.3125 C 0.488281 -0.257812 0.460938 -0.203125 0.421875 -0.140625 C 0.378906 -0.078125 0.328125 -0.03125 0.265625 0 C 0.203125 0.03125 0.132812 0.0390625 0.0625 0.03125 C 0 0.03125 -0.0625 0 -0.125 -0.0625 C -0.15625 -0.113281 -0.179688 -0.148438 -0.203125 -0.171875 C -0.210938 -0.179688 -0.234375 -0.203125 -0.265625 -0.234375 C -0.492188 -0.566406 -0.664062 -0.832031 -0.78125 -1.03125 C -0.976562 -1.4375 -1.097656 -1.773438 -1.140625 -2.046875 C -1.191406 -2.265625 -1.144531 -2.476562 -1 -2.6875 C -0.882812 -2.882812 -0.726562 -3.007812 -0.53125 -3.0625 Z M 0.390625 -0.640625 C 0.398438 -0.671875 0.410156 -0.6875 0.421875 -0.6875 C 0.441406 -0.695312 0.460938 -0.722656 0.484375 -0.765625 C 0.523438 -0.804688 0.5625 -0.894531 0.59375 -1.03125 C 0.582031 -1.125 0.554688 -1.195312 0.515625 -1.25 C 0.472656 -1.300781 0.429688 -1.320312 0.390625 -1.3125 C 0.359375 -1.3125 0.328125 -1.296875 0.296875 -1.265625 C 0.265625 -1.234375 0.238281 -1.195312 0.21875 -1.15625 C 0.195312 -1.113281 0.164062 -1.070312 0.125 -1.03125 C 0.164062 -0.988281 0.191406 -0.953125 0.203125 -0.921875 C 0.210938 -0.890625 0.226562 -0.863281 0.25 -0.84375 C 0.28125 -0.769531 0.328125 -0.703125 0.390625 -0.640625 Z M -0.40625 -2.34375 C -0.457031 -2.289062 -0.472656 -2.203125 -0.453125 -2.078125 C -0.441406 -1.984375 -0.390625 -1.878906 -0.296875 -1.765625 C -0.285156 -1.796875 -0.265625 -1.832031 -0.234375 -1.875 C -0.210938 -1.925781 -0.195312 -1.976562 -0.1875 -2.03125 C -0.15625 -2.125 -0.140625 -2.210938 -0.140625 -2.296875 C -0.148438 -2.347656 -0.171875 -2.390625 -0.203125 -2.421875 C -0.253906 -2.429688 -0.3125 -2.414062 -0.375 -2.375 C -0.382812 -2.363281 -0.394531 -2.351562 -0.40625 -2.34375 Z M -0.453125 -2.296875 Z M -0.453125 -2.296875 "/></g></g></g><g fill="#000000" fill-opacity="1"><g transform="translate(98.90387, 41.4787)"><g><path d="M 0.0625 -1.09375 L 0.21875 -0.6875 C 0.25 -0.632812 0.28125 -0.570312 0.3125 -0.5 C 0.351562 -0.4375 0.382812 -0.378906 0.40625 -0.328125 C 0.4375 -0.285156 0.445312 -0.238281 0.4375 -0.1875 C 0.425781 -0.132812 0.40625 -0.0859375 0.375 -0.046875 C 0.34375 -0.00390625 0.304688 0.0351562 0.265625 0.078125 C 0.222656 0.117188 0.179688 0.148438 0.140625 0.171875 C 0.046875 0.203125 -0.0234375 0.171875 -0.078125 0.078125 C -0.328125 -0.316406 -0.515625 -0.640625 -0.640625 -0.890625 C -0.773438 -1.148438 -0.875 -1.359375 -0.9375 -1.515625 C -1.007812 -1.679688 -1.082031 -1.84375 -1.15625 -2 C -1.207031 -2.050781 -1.234375 -2.113281 -1.234375 -2.1875 C -1.234375 -2.257812 -1.222656 -2.328125 -1.203125 -2.390625 C -1.179688 -2.453125 -1.148438 -2.515625 -1.109375 -2.578125 C -1.066406 -2.640625 -1.023438 -2.6875 -0.984375 -2.71875 C -0.941406 -2.75 -0.894531 -2.757812 -0.84375 -2.75 C -0.789062 -2.738281 -0.75 -2.695312 -0.71875 -2.625 C -0.632812 -2.4375 -0.570312 -2.296875 -0.53125 -2.203125 C -0.5 -2.117188 -0.472656 -2.046875 -0.453125 -1.984375 L -0.34375 -1.75 C -0.3125 -1.78125 -0.28125 -1.832031 -0.25 -1.90625 C -0.175781 -2.019531 -0.113281 -2.09375 -0.0625 -2.125 C -0.0703125 -2.132812 -0.0820312 -2.144531 -0.09375 -2.15625 C -0.238281 -2.40625 -0.367188 -2.640625 -0.484375 -2.859375 C -0.566406 -3.023438 -0.53125 -3.195312 -0.375 -3.375 C -0.300781 -3.445312 -0.238281 -3.476562 -0.1875 -3.46875 C -0.113281 -3.476562 -0.0625 -3.4375 -0.03125 -3.34375 C 0.226562 -2.789062 0.445312 -2.363281 0.625 -2.0625 C 0.832031 -1.726562 0.972656 -1.5 1.046875 -1.375 C 1.128906 -1.257812 1.171875 -1.1875 1.171875 -1.15625 C 1.171875 -1.125 1.164062 -1.09375 1.15625 -1.0625 C 1.144531 -1.03125 1.128906 -1.003906 1.109375 -0.984375 C 1.097656 -0.972656 1.109375 -0.953125 1.140625 -0.921875 L 1.125 -0.90625 C 1.144531 -0.863281 1.140625 -0.8125 1.109375 -0.75 C 1.085938 -0.695312 1.050781 -0.648438 1 -0.609375 C 0.945312 -0.566406 0.890625 -0.546875 0.828125 -0.546875 C 0.773438 -0.554688 0.726562 -0.59375 0.6875 -0.65625 C 0.613281 -0.769531 0.539062 -0.894531 0.46875 -1.03125 C 0.40625 -1.175781 0.351562 -1.285156 0.3125 -1.359375 C 0.28125 -1.441406 0.242188 -1.515625 0.203125 -1.578125 C 0.203125 -1.554688 0.195312 -1.535156 0.1875 -1.515625 C 0.1875 -1.503906 0.175781 -1.484375 0.15625 -1.453125 C 0.144531 -1.429688 0.132812 -1.410156 0.125 -1.390625 C 0.113281 -1.367188 0.101562 -1.34375 0.09375 -1.3125 C 0.0625 -1.238281 0.0390625 -1.1875 0.03125 -1.15625 Z M 0.15625 -1.53125 C 0.15625 -1.53125 0.160156 -1.535156 0.171875 -1.546875 C 0.160156 -1.535156 0.15625 -1.53125 0.15625 -1.53125 Z M 0.15625 -1.53125 "/></g></g></g><g fill="#000000" fill-opacity="1"><g transform="translate(100.3082, 40.074371)"><g><path d="M -0.90625 -2.53125 L -0.890625 -2.546875 L -0.828125 -2.515625 C -0.773438 -2.484375 -0.675781 -2.300781 -0.53125 -1.96875 C -0.382812 -1.59375 -0.238281 -1.34375 -0.09375 -1.21875 C 0.03125 -1.132812 0.0390625 -1.300781 -0.0625 -1.71875 C -0.15625 -2.039062 -0.265625 -2.378906 -0.390625 -2.734375 C -0.421875 -2.785156 -0.441406 -2.835938 -0.453125 -2.890625 C -0.472656 -2.953125 -0.484375 -3.003906 -0.484375 -3.046875 C -0.492188 -3.160156 -0.445312 -3.238281 -0.34375 -3.28125 C -0.34375 -3.34375 -0.332031 -3.394531 -0.3125 -3.4375 C -0.289062 -3.476562 -0.257812 -3.507812 -0.21875 -3.53125 C -0.175781 -3.550781 -0.132812 -3.5625 -0.09375 -3.5625 C -0.0507812 -3.5625 -0.015625 -3.546875 0.015625 -3.515625 C 0.0546875 -3.492188 0.117188 -3.40625 0.203125 -3.25 C 0.285156 -3.09375 0.359375 -2.941406 0.421875 -2.796875 C 0.492188 -2.660156 0.570312 -2.53125 0.65625 -2.40625 C 0.851562 -2.039062 1.046875 -1.710938 1.234375 -1.421875 C 1.285156 -1.367188 1.304688 -1.300781 1.296875 -1.21875 C 1.296875 -1.144531 1.273438 -1.078125 1.234375 -1.015625 C 1.191406 -0.953125 1.132812 -0.90625 1.0625 -0.875 C 0.988281 -0.84375 0.925781 -0.851562 0.875 -0.90625 C 0.84375 -0.9375 0.820312 -0.957031 0.8125 -0.96875 C 0.863281 -0.914062 0.867188 -0.828125 0.828125 -0.703125 C 0.816406 -0.671875 0.804688 -0.640625 0.796875 -0.609375 C 0.722656 -0.472656 0.597656 -0.367188 0.421875 -0.296875 C 0.335938 -0.253906 0.25 -0.226562 0.15625 -0.21875 C 0.0703125 -0.21875 0 -0.238281 -0.0625 -0.28125 C -0.300781 -0.394531 -0.523438 -0.640625 -0.734375 -1.015625 C -0.828125 -1.171875 -0.910156 -1.332031 -0.984375 -1.5 C -1.054688 -1.664062 -1.101562 -1.78125 -1.125 -1.84375 C -1.15625 -1.914062 -1.175781 -1.96875 -1.1875 -2 C -1.195312 -2.03125 -1.207031 -2.0625 -1.21875 -2.09375 C -1.25 -2.164062 -1.257812 -2.226562 -1.25 -2.28125 L -1.265625 -2.328125 C -1.253906 -2.335938 -1.25 -2.34375 -1.25 -2.34375 C -1.238281 -2.375 -1.234375 -2.398438 -1.234375 -2.421875 L -1.1875 -2.46875 C -1.144531 -2.507812 -1.09375 -2.539062 -1.03125 -2.5625 L -0.96875 -2.5625 C -0.957031 -2.550781 -0.945312 -2.546875 -0.9375 -2.546875 C -0.9375 -2.554688 -0.9375 -2.5625 -0.9375 -2.5625 C -0.925781 -2.550781 -0.921875 -2.546875 -0.921875 -2.546875 C -0.921875 -2.546875 -0.914062 -2.539062 -0.90625 -2.53125 Z M 0.75 -1.03125 C 0.75 -1.03125 0.753906 -1.023438 0.765625 -1.015625 Z M 0.75 -1.03125 "/></g></g></g><g fill="#000000" fill-opacity="1"><g transform="translate(101.944197, 38.438373)"><g><path d="M 0.703125 -1.734375 C 0.691406 -1.617188 0.660156 -1.515625 0.609375 -1.421875 C 0.566406 -1.335938 0.503906 -1.265625 0.421875 -1.203125 C 0.347656 -1.148438 0.265625 -1.117188 0.171875 -1.109375 C 0.265625 -0.929688 0.367188 -0.765625 0.484375 -0.609375 C 0.515625 -0.578125 0.53125 -0.539062 0.53125 -0.5 C 0.582031 -0.382812 0.570312 -0.269531 0.5 -0.15625 C 0.4375 -0.03125 0.347656 0.0546875 0.234375 0.109375 C 0.171875 0.128906 0.113281 0.132812 0.0625 0.125 C 0.0078125 0.113281 -0.0390625 0.0820312 -0.09375 0.03125 C -0.363281 -0.445312 -0.570312 -0.863281 -0.71875 -1.21875 C -0.738281 -1.28125 -0.757812 -1.335938 -0.78125 -1.390625 C -0.800781 -1.441406 -0.816406 -1.484375 -0.828125 -1.515625 C -0.835938 -1.546875 -0.847656 -1.570312 -0.859375 -1.59375 C -0.878906 -1.625 -0.890625 -1.648438 -0.890625 -1.671875 C -0.910156 -1.753906 -0.929688 -1.84375 -0.953125 -1.9375 C -0.984375 -2.039062 -1 -2.117188 -1 -2.171875 C -1.007812 -2.234375 -1.007812 -2.289062 -1 -2.34375 C -1 -2.40625 -0.988281 -2.460938 -0.96875 -2.515625 C -0.957031 -2.578125 -0.9375 -2.648438 -0.90625 -2.734375 C -0.882812 -2.828125 -0.847656 -2.90625 -0.796875 -2.96875 C -0.753906 -3.039062 -0.691406 -3.097656 -0.609375 -3.140625 C -0.460938 -3.222656 -0.296875 -3.222656 -0.109375 -3.140625 C 0.0546875 -3.078125 0.222656 -2.929688 0.390625 -2.703125 C 0.640625 -2.347656 0.742188 -2.023438 0.703125 -1.734375 Z M 0.015625 -1.453125 C 0.109375 -1.609375 0.109375 -1.785156 0.015625 -1.984375 C -0.0546875 -2.140625 -0.175781 -2.28125 -0.34375 -2.40625 C -0.332031 -2.3125 -0.304688 -2.21875 -0.265625 -2.125 C -0.222656 -2.03125 -0.191406 -1.941406 -0.171875 -1.859375 C -0.109375 -1.691406 -0.046875 -1.554688 0.015625 -1.453125 Z M 0.015625 -1.453125 "/></g></g></g><g fill="#000000" fill-opacity="1"><g transform="translate(103.391516, 36.991054)"><g><path d="M 0.25 -0.84375 C 0.34375 -0.914062 0.410156 -0.972656 0.453125 -1.015625 C 0.503906 -1.066406 0.566406 -1.148438 0.640625 -1.265625 C 0.691406 -1.273438 0.722656 -1.273438 0.734375 -1.265625 C 0.742188 -1.253906 0.753906 -1.238281 0.765625 -1.21875 C 0.785156 -1.207031 0.804688 -1.195312 0.828125 -1.1875 C 0.847656 -1.175781 0.875 -1.175781 0.90625 -1.1875 C 0.925781 -1.207031 0.945312 -1.203125 0.96875 -1.171875 C 0.988281 -1.140625 1 -1.101562 1 -1.0625 C 1.019531 -0.9375 1.003906 -0.828125 0.953125 -0.734375 C 0.867188 -0.585938 0.800781 -0.476562 0.75 -0.40625 C 0.632812 -0.289062 0.507812 -0.175781 0.375 -0.0625 C 0.207031 0.0390625 0.0820312 0.0507812 0 -0.03125 C -0.332031 -0.363281 -0.597656 -0.773438 -0.796875 -1.265625 C -0.847656 -1.421875 -0.910156 -1.585938 -0.984375 -1.765625 C -0.992188 -1.816406 -1.015625 -1.859375 -1.046875 -1.890625 C -1.078125 -1.921875 -1.101562 -1.953125 -1.125 -1.984375 C -1.15625 -2.023438 -1.175781 -2.054688 -1.1875 -2.078125 C -1.207031 -2.109375 -1.207031 -2.132812 -1.1875 -2.15625 C -0.988281 -2.625 -0.773438 -2.941406 -0.546875 -3.109375 C -0.484375 -3.171875 -0.421875 -3.191406 -0.359375 -3.171875 C -0.296875 -3.148438 -0.242188 -3.101562 -0.203125 -3.03125 C -0.171875 -2.96875 -0.15625 -2.890625 -0.15625 -2.796875 C -0.15625 -2.703125 -0.179688 -2.609375 -0.234375 -2.515625 C -0.304688 -2.398438 -0.347656 -2.328125 -0.359375 -2.296875 C -0.378906 -2.234375 -0.382812 -2.175781 -0.375 -2.125 C -0.351562 -2.0625 -0.335938 -2.003906 -0.328125 -1.953125 C -0.328125 -1.910156 -0.3125 -1.863281 -0.28125 -1.8125 L -0.234375 -1.765625 C -0.179688 -1.773438 -0.140625 -1.804688 -0.109375 -1.859375 C -0.078125 -1.910156 -0.0390625 -1.953125 0 -1.984375 C 0.03125 -2.023438 0.0546875 -2.054688 0.078125 -2.078125 C 0.109375 -2.109375 0.140625 -2.09375 0.171875 -2.03125 C 0.203125 -1.96875 0.222656 -1.890625 0.234375 -1.796875 C 0.253906 -1.710938 0.242188 -1.628906 0.203125 -1.546875 C 0.171875 -1.492188 0.144531 -1.457031 0.125 -1.4375 C 0.113281 -1.425781 0.109375 -1.421875 0.109375 -1.421875 C 0.0976562 -1.390625 0.0664062 -1.347656 0.015625 -1.296875 C 0.0664062 -1.097656 0.125 -0.957031 0.1875 -0.875 C 0.207031 -0.832031 0.226562 -0.820312 0.25 -0.84375 Z M 0.25 -0.84375 "/></g></g></g><g fill="#000000" fill-opacity="1"><g transform="translate(104.642993, 35.739577)"><g><path d="M -0.75 -1.09375 C -0.832031 -1.21875 -0.894531 -1.320312 -0.9375 -1.40625 C -0.976562 -1.488281 -1.007812 -1.5625 -1.03125 -1.625 C -1.0625 -1.695312 -1.085938 -1.765625 -1.109375 -1.828125 C -1.128906 -1.890625 -1.140625 -1.953125 -1.140625 -2.015625 C -1.148438 -2.085938 -1.148438 -2.148438 -1.140625 -2.203125 C -1.128906 -2.253906 -1.101562 -2.300781 -1.0625 -2.34375 C -1.019531 -2.382812 -0.960938 -2.410156 -0.890625 -2.421875 C -0.679688 -2.316406 -0.539062 -2.25 -0.46875 -2.21875 C -0.363281 -2.15625 -0.234375 -2.054688 -0.078125 -1.921875 C -0.0859375 -1.972656 -0.101562 -2.023438 -0.125 -2.078125 C -0.15625 -2.140625 -0.179688 -2.203125 -0.203125 -2.265625 C -0.253906 -2.421875 -0.300781 -2.53125 -0.34375 -2.59375 C -0.425781 -2.738281 -0.4375 -2.894531 -0.375 -3.0625 C -0.332031 -3.207031 -0.257812 -3.3125 -0.15625 -3.375 C -0.113281 -3.394531 -0.078125 -3.40625 -0.046875 -3.40625 C -0.015625 -3.40625 0 -3.382812 0 -3.34375 C 0.0078125 -3.3125 0.03125 -3.285156 0.0625 -3.265625 C 0.09375 -3.242188 0.117188 -3.222656 0.140625 -3.203125 C 0.210938 -3.128906 0.265625 -3.050781 0.296875 -2.96875 C 0.328125 -2.882812 0.363281 -2.78125 0.40625 -2.65625 C 0.457031 -2.539062 0.515625 -2.421875 0.578125 -2.296875 C 0.648438 -2.179688 0.710938 -2.054688 0.765625 -1.921875 C 0.828125 -1.796875 0.882812 -1.675781 0.9375 -1.5625 C 1.0625 -1.3125 1.101562 -1.15625 1.0625 -1.09375 C 1.039062 -0.988281 1.023438 -0.921875 1.015625 -0.890625 C 0.972656 -0.847656 0.914062 -0.789062 0.84375 -0.71875 C 0.8125 -0.6875 0.726562 -0.707031 0.59375 -0.78125 C 0.507812 -0.820312 0.410156 -0.878906 0.296875 -0.953125 C 0.0976562 -1.109375 -0.015625 -1.191406 -0.046875 -1.203125 C 0.0976562 -0.929688 0.1875 -0.753906 0.21875 -0.671875 C 0.25 -0.585938 0.265625 -0.53125 0.265625 -0.5 C 0.265625 -0.46875 0.269531 -0.4375 0.28125 -0.40625 C 0.320312 -0.320312 0.316406 -0.222656 0.265625 -0.109375 C 0.222656 -0.0234375 0.171875 0.0351562 0.109375 0.078125 C 0.0234375 0.117188 -0.03125 0.101562 -0.0625 0.03125 C -0.238281 -0.1875 -0.46875 -0.5625 -0.75 -1.09375 Z M -0.75 -1.09375 "/></g></g></g><g fill="#000000" fill-opacity="1"><g transform="translate(98.787928, 46.371241)"><g><path d="M 0.21875 -1.4375 C 0.300781 -1.269531 0.375 -1.101562 0.4375 -0.9375 C 0.507812 -0.78125 0.5625 -0.660156 0.59375 -0.578125 C 0.625 -0.492188 0.640625 -0.425781 0.640625 -0.375 C 0.640625 -0.320312 0.628906 -0.28125 0.609375 -0.25 C 0.597656 -0.226562 0.582031 -0.207031 0.5625 -0.1875 C 0.539062 -0.164062 0.507812 -0.144531 0.46875 -0.125 C 0.320312 0 0.1875 -0.0507812 0.0625 -0.28125 C -0.03125 -0.457031 -0.113281 -0.597656 -0.1875 -0.703125 C -0.257812 -0.804688 -0.3125 -0.890625 -0.34375 -0.953125 C -0.382812 -1.023438 -0.414062 -1.082031 -0.4375 -1.125 C -0.46875 -1.175781 -0.5 -1.226562 -0.53125 -1.28125 C -0.5625 -1.332031 -0.59375 -1.390625 -0.625 -1.453125 C -0.65625 -1.515625 -0.691406 -1.597656 -0.734375 -1.703125 C -0.785156 -1.628906 -0.84375 -1.582031 -0.90625 -1.5625 C -1.007812 -1.519531 -1.109375 -1.554688 -1.203125 -1.671875 C -1.234375 -1.722656 -1.25 -1.789062 -1.25 -1.875 C -1.25 -1.914062 -1.242188 -1.960938 -1.234375 -2.015625 C -1.222656 -2.128906 -1.15625 -2.3125 -1.03125 -2.5625 C -0.882812 -2.789062 -0.742188 -2.972656 -0.609375 -3.109375 C -0.585938 -3.148438 -0.546875 -3.179688 -0.484375 -3.203125 C -0.429688 -3.234375 -0.378906 -3.242188 -0.328125 -3.234375 C -0.285156 -3.234375 -0.25 -3.21875 -0.21875 -3.1875 C -0.195312 -3.164062 -0.1875 -3.125 -0.1875 -3.0625 C -0.195312 -3.03125 -0.191406 -2.992188 -0.171875 -2.953125 C -0.160156 -2.921875 -0.140625 -2.882812 -0.109375 -2.84375 C -0.078125 -2.800781 -0.0546875 -2.753906 -0.046875 -2.703125 C -0.046875 -2.660156 -0.0664062 -2.617188 -0.109375 -2.578125 C -0.0976562 -2.546875 -0.109375 -2.503906 -0.140625 -2.453125 C -0.179688 -2.410156 -0.207031 -2.382812 -0.21875 -2.375 C -0.226562 -2.363281 -0.226562 -2.351562 -0.21875 -2.34375 C -0.164062 -2.226562 -0.0976562 -2.085938 -0.015625 -1.921875 C 0.0546875 -1.765625 0.132812 -1.601562 0.21875 -1.4375 Z M -0.734375 -1.765625 C -0.734375 -1.765625 -0.726562 -1.757812 -0.71875 -1.75 Z M -0.734375 -1.765625 "/></g></g></g><g fill="#000000" fill-opacity="1"><g transform="translate(99.986864, 45.172306)"><g><path d="M -0.90625 -2.53125 L -0.890625 -2.546875 L -0.828125 -2.515625 C -0.773438 -2.484375 -0.675781 -2.300781 -0.53125 -1.96875 C -0.382812 -1.59375 -0.238281 -1.34375 -0.09375 -1.21875 C 0.03125 -1.132812 0.0390625 -1.300781 -0.0625 -1.71875 C -0.15625 -2.039062 -0.265625 -2.378906 -0.390625 -2.734375 C -0.421875 -2.785156 -0.441406 -2.835938 -0.453125 -2.890625 C -0.472656 -2.953125 -0.484375 -3.003906 -0.484375 -3.046875 C -0.492188 -3.160156 -0.445312 -3.238281 -0.34375 -3.28125 C -0.34375 -3.34375 -0.332031 -3.394531 -0.3125 -3.4375 C -0.289062 -3.476562 -0.257812 -3.507812 -0.21875 -3.53125 C -0.175781 -3.550781 -0.132812 -3.5625 -0.09375 -3.5625 C -0.0507812 -3.5625 -0.015625 -3.546875 0.015625 -3.515625 C 0.0546875 -3.492188 0.117188 -3.40625 0.203125 -3.25 C 0.285156 -3.09375 0.359375 -2.941406 0.421875 -2.796875 C 0.492188 -2.660156 0.570312 -2.53125 0.65625 -2.40625 C 0.851562 -2.039062 1.046875 -1.710938 1.234375 -1.421875 C 1.285156 -1.367188 1.304688 -1.300781 1.296875 -1.21875 C 1.296875 -1.144531 1.273438 -1.078125 1.234375 -1.015625 C 1.191406 -0.953125 1.132812 -0.90625 1.0625 -0.875 C 0.988281 -0.84375 0.925781 -0.851562 0.875 -0.90625 C 0.84375 -0.9375 0.820312 -0.957031 0.8125 -0.96875 C 0.863281 -0.914062 0.867188 -0.828125 0.828125 -0.703125 C 0.816406 -0.671875 0.804688 -0.640625 0.796875 -0.609375 C 0.722656 -0.472656 0.597656 -0.367188 0.421875 -0.296875 C 0.335938 -0.253906 0.25 -0.226562 0.15625 -0.21875 C 0.0703125 -0.21875 0 -0.238281 -0.0625 -0.28125 C -0.300781 -0.394531 -0.523438 -0.640625 -0.734375 -1.015625 C -0.828125 -1.171875 -0.910156 -1.332031 -0.984375 -1.5 C -1.054688 -1.664062 -1.101562 -1.78125 -1.125 -1.84375 C -1.15625 -1.914062 -1.175781 -1.96875 -1.1875 -2 C -1.195312 -2.03125 -1.207031 -2.0625 -1.21875 -2.09375 C -1.25 -2.164062 -1.257812 -2.226562 -1.25 -2.28125 L -1.265625 -2.328125 C -1.253906 -2.335938 -1.25 -2.34375 -1.25 -2.34375 C -1.238281 -2.375 -1.234375 -2.398438 -1.234375 -2.421875 L -1.1875 -2.46875 C -1.144531 -2.507812 -1.09375 -2.539062 -1.03125 -2.5625 L -0.96875 -2.5625 C -0.957031 -2.550781 -0.945312 -2.546875 -0.9375 -2.546875 C -0.9375 -2.554688 -0.9375 -2.5625 -0.9375 -2.5625 C -0.925781 -2.550781 -0.921875 -2.546875 -0.921875 -2.546875 C -0.921875 -2.546875 -0.914062 -2.539062 -0.90625 -2.53125 Z M 0.75 -1.03125 C 0.75 -1.03125 0.753906 -1.023438 0.765625 -1.015625 Z M 0.75 -1.03125 "/></g></g></g><g fill="#000000" fill-opacity="1"><g transform="translate(101.622862, 43.536308)"><g><path d="M 0.9375 -0.71875 C 0.90625 -0.664062 0.875 -0.625 0.84375 -0.59375 C 0.820312 -0.570312 0.796875 -0.546875 0.765625 -0.515625 C 0.734375 -0.484375 0.691406 -0.441406 0.640625 -0.390625 C 0.585938 -0.335938 0.503906 -0.253906 0.390625 -0.140625 C 0.367188 -0.117188 0.34375 -0.09375 0.3125 -0.0625 C 0.289062 -0.0390625 0.269531 -0.0195312 0.25 0 C 0.175781 0.03125 0.09375 0.0195312 0 -0.03125 C -0.0390625 -0.0703125 -0.0703125 -0.09375 -0.09375 -0.09375 C -0.125 -0.101562 -0.148438 -0.109375 -0.171875 -0.109375 C -0.210938 -0.109375 -0.253906 -0.148438 -0.296875 -0.234375 C -0.335938 -0.316406 -0.382812 -0.414062 -0.4375 -0.53125 C -0.5 -0.65625 -0.5625 -0.78125 -0.625 -0.90625 C -0.769531 -1.21875 -0.875 -1.46875 -0.9375 -1.65625 C -0.976562 -1.757812 -1.007812 -1.84375 -1.03125 -1.90625 C -1.050781 -1.96875 -1.070312 -2.023438 -1.09375 -2.078125 C -1.113281 -2.128906 -1.125 -2.15625 -1.125 -2.15625 C -1.15625 -2.226562 -1.144531 -2.34375 -1.09375 -2.5 C -1.019531 -2.632812 -0.9375 -2.738281 -0.84375 -2.8125 C -0.71875 -2.875 -0.613281 -2.851562 -0.53125 -2.75 C -0.445312 -2.625 -0.378906 -2.488281 -0.328125 -2.34375 C -0.273438 -2.195312 -0.222656 -2.039062 -0.171875 -1.875 C -0.117188 -1.707031 -0.0625 -1.53125 0 -1.34375 C 0.0507812 -1.164062 0.117188 -0.972656 0.203125 -0.765625 C 0.203125 -0.765625 0.207031 -0.769531 0.21875 -0.78125 C 0.238281 -0.800781 0.257812 -0.832031 0.28125 -0.875 C 0.3125 -0.925781 0.34375 -0.972656 0.375 -1.015625 C 0.414062 -1.066406 0.453125 -1.109375 0.484375 -1.140625 C 0.523438 -1.179688 0.570312 -1.207031 0.625 -1.21875 C 0.644531 -1.195312 0.671875 -1.179688 0.703125 -1.171875 C 0.742188 -1.171875 0.773438 -1.171875 0.796875 -1.171875 C 0.878906 -1.171875 0.941406 -1.117188 0.984375 -1.015625 C 1.015625 -0.921875 1 -0.820312 0.9375 -0.71875 Z M 0.9375 -0.71875 "/></g></g></g><g fill="#000000" fill-opacity="1"><g transform="translate(102.738205, 42.420965)"><g><path d="M -0.296875 -2.921875 C -0.210938 -2.960938 -0.132812 -2.957031 -0.0625 -2.90625 C 0.0820312 -2.695312 0.226562 -2.492188 0.375 -2.296875 C 0.519531 -2.097656 0.640625 -1.925781 0.734375 -1.78125 C 0.828125 -1.632812 0.898438 -1.53125 0.953125 -1.46875 C 1.003906 -1.40625 1.054688 -1.335938 1.109375 -1.265625 L 1.15625 -1.1875 C 1.15625 -1.164062 1.160156 -1.144531 1.171875 -1.125 C 1.191406 -1.113281 1.207031 -1.101562 1.21875 -1.09375 C 1.21875 -0.988281 1.179688 -0.898438 1.109375 -0.828125 C 1.023438 -0.742188 0.941406 -0.691406 0.859375 -0.671875 C 0.816406 -0.671875 0.765625 -0.722656 0.703125 -0.828125 C 0.679688 -0.847656 0.648438 -0.882812 0.609375 -0.9375 C 0.566406 -0.988281 0.53125 -1.03125 0.5 -1.0625 C 0.476562 -1 0.457031 -0.929688 0.4375 -0.859375 C 0.425781 -0.796875 0.421875 -0.757812 0.421875 -0.75 C 0.421875 -0.738281 0.410156 -0.71875 0.390625 -0.6875 C 0.378906 -0.664062 0.375 -0.65625 0.375 -0.65625 C 0.34375 -0.601562 0.320312 -0.570312 0.3125 -0.5625 C 0.382812 -0.300781 0.394531 -0.125 0.34375 -0.03125 C 0.3125 0.0195312 0.269531 0.0664062 0.21875 0.109375 C 0.164062 0.148438 0.0976562 0.160156 0.015625 0.140625 C -0.0664062 0.140625 -0.179688 -0.00390625 -0.328125 -0.296875 C -0.390625 -0.441406 -0.460938 -0.632812 -0.546875 -0.875 C -0.628906 -1.113281 -0.691406 -1.328125 -0.734375 -1.515625 C -0.835938 -1.929688 -0.882812 -2.3125 -0.875 -2.65625 C -0.863281 -2.707031 -0.847656 -2.753906 -0.828125 -2.796875 C -0.816406 -2.847656 -0.789062 -2.894531 -0.75 -2.9375 C -0.707031 -2.976562 -0.660156 -3.007812 -0.609375 -3.03125 C -0.566406 -3.0625 -0.53125 -3.082031 -0.5 -3.09375 C -0.394531 -3.09375 -0.328125 -3.035156 -0.296875 -2.921875 Z M -0.1875 -1.8125 C -0.113281 -1.675781 -0.0546875 -1.550781 -0.015625 -1.4375 C 0.0234375 -1.320312 0.0664062 -1.222656 0.109375 -1.140625 L 0.296875 -1.328125 C 0.203125 -1.441406 0.113281 -1.554688 0.03125 -1.671875 C -0.0507812 -1.785156 -0.140625 -1.898438 -0.234375 -2.015625 Z M 0.21875 -1.25 C 0.238281 -1.269531 0.265625 -1.296875 0.296875 -1.328125 C 0.273438 -1.304688 0.253906 -1.285156 0.234375 -1.265625 C 0.222656 -1.253906 0.21875 -1.25 0.21875 -1.25 Z M 0.21875 -1.25 "/></g></g></g><g fill="#000000" fill-opacity="1"><g transform="translate(104.085216, 41.073954)"><g><path d="M 0.515625 -2.453125 C 0.578125 -2.367188 0.632812 -2.285156 0.6875 -2.203125 C 0.738281 -2.117188 0.78125 -2.019531 0.8125 -1.90625 C 0.851562 -1.800781 0.878906 -1.691406 0.890625 -1.578125 C 0.910156 -1.472656 0.914062 -1.363281 0.90625 -1.25 C 0.90625 -1.144531 0.894531 -1.039062 0.875 -0.9375 C 0.820312 -0.71875 0.71875 -0.550781 0.5625 -0.4375 C 0.582031 -0.351562 0.570312 -0.273438 0.53125 -0.203125 C 0.488281 -0.128906 0.429688 -0.0703125 0.359375 -0.03125 C 0.296875 0 0.21875 0.0078125 0.125 0 C 0.0390625 0 -0.0351562 -0.0351562 -0.109375 -0.109375 C -0.191406 -0.191406 -0.269531 -0.28125 -0.34375 -0.375 C -0.414062 -0.46875 -0.484375 -0.566406 -0.546875 -0.671875 C -0.640625 -0.828125 -0.722656 -0.984375 -0.796875 -1.140625 C -0.941406 -1.492188 -1.0625 -1.738281 -1.15625 -1.875 C -1.269531 -2.03125 -1.316406 -2.148438 -1.296875 -2.234375 C -1.253906 -2.378906 -1.191406 -2.488281 -1.109375 -2.5625 C -1.023438 -2.632812 -0.929688 -2.691406 -0.828125 -2.734375 C -0.671875 -2.785156 -0.460938 -2.816406 -0.203125 -2.828125 C 0.0859375 -2.828125 0.328125 -2.703125 0.515625 -2.453125 Z M 0.296875 -0.796875 C 0.316406 -0.921875 0.332031 -1.023438 0.34375 -1.109375 C 0.363281 -1.203125 0.378906 -1.296875 0.390625 -1.390625 C 0.378906 -1.523438 0.347656 -1.648438 0.296875 -1.765625 C 0.160156 -2.046875 -0.0390625 -2.164062 -0.3125 -2.125 C -0.351562 -2.101562 -0.410156 -2.085938 -0.484375 -2.078125 C -0.460938 -2.015625 -0.425781 -1.945312 -0.375 -1.875 C -0.320312 -1.800781 -0.285156 -1.734375 -0.265625 -1.671875 L 0.046875 -1.109375 C 0.0859375 -1.066406 0.117188 -1.03125 0.140625 -1 C 0.160156 -0.96875 0.179688 -0.929688 0.203125 -0.890625 Z M 0.296875 -0.796875 "/></g></g></g><g fill="#000000" fill-opacity="1"><g transform="translate(105.503876, 39.655294)"><g><path d="M 0.0625 -1.09375 L 0.21875 -0.6875 C 0.25 -0.632812 0.28125 -0.570312 0.3125 -0.5 C 0.351562 -0.4375 0.382812 -0.378906 0.40625 -0.328125 C 0.4375 -0.285156 0.445312 -0.238281 0.4375 -0.1875 C 0.425781 -0.132812 0.40625 -0.0859375 0.375 -0.046875 C 0.34375 -0.00390625 0.304688 0.0351562 0.265625 0.078125 C 0.222656 0.117188 0.179688 0.148438 0.140625 0.171875 C 0.046875 0.203125 -0.0234375 0.171875 -0.078125 0.078125 C -0.328125 -0.316406 -0.515625 -0.640625 -0.640625 -0.890625 C -0.773438 -1.148438 -0.875 -1.359375 -0.9375 -1.515625 C -1.007812 -1.679688 -1.082031 -1.84375 -1.15625 -2 C -1.207031 -2.050781 -1.234375 -2.113281 -1.234375 -2.1875 C -1.234375 -2.257812 -1.222656 -2.328125 -1.203125 -2.390625 C -1.179688 -2.453125 -1.148438 -2.515625 -1.109375 -2.578125 C -1.066406 -2.640625 -1.023438 -2.6875 -0.984375 -2.71875 C -0.941406 -2.75 -0.894531 -2.757812 -0.84375 -2.75 C -0.789062 -2.738281 -0.75 -2.695312 -0.71875 -2.625 C -0.632812 -2.4375 -0.570312 -2.296875 -0.53125 -2.203125 C -0.5 -2.117188 -0.472656 -2.046875 -0.453125 -1.984375 L -0.34375 -1.75 C -0.3125 -1.78125 -0.28125 -1.832031 -0.25 -1.90625 C -0.175781 -2.019531 -0.113281 -2.09375 -0.0625 -2.125 C -0.0703125 -2.132812 -0.0820312 -2.144531 -0.09375 -2.15625 C -0.238281 -2.40625 -0.367188 -2.640625 -0.484375 -2.859375 C -0.566406 -3.023438 -0.53125 -3.195312 -0.375 -3.375 C -0.300781 -3.445312 -0.238281 -3.476562 -0.1875 -3.46875 C -0.113281 -3.476562 -0.0625 -3.4375 -0.03125 -3.34375 C 0.226562 -2.789062 0.445312 -2.363281 0.625 -2.0625 C 0.832031 -1.726562 0.972656 -1.5 1.046875 -1.375 C 1.128906 -1.257812 1.171875 -1.1875 1.171875 -1.15625 C 1.171875 -1.125 1.164062 -1.09375 1.15625 -1.0625 C 1.144531 -1.03125 1.128906 -1.003906 1.109375 -0.984375 C 1.097656 -0.972656 1.109375 -0.953125 1.140625 -0.921875 L 1.125 -0.90625 C 1.144531 -0.863281 1.140625 -0.8125 1.109375 -0.75 C 1.085938 -0.695312 1.050781 -0.648438 1 -0.609375 C 0.945312 -0.566406 0.890625 -0.546875 0.828125 -0.546875 C 0.773438 -0.554688 0.726562 -0.59375 0.6875 -0.65625 C 0.613281 -0.769531 0.539062 -0.894531 0.46875 -1.03125 C 0.40625 -1.175781 0.351562 -1.285156 0.3125 -1.359375 C 0.28125 -1.441406 0.242188 -1.515625 0.203125 -1.578125 C 0.203125 -1.554688 0.195312 -1.535156 0.1875 -1.515625 C 0.1875 -1.503906 0.175781 -1.484375 0.15625 -1.453125 C 0.144531 -1.429688 0.132812 -1.410156 0.125 -1.390625 C 0.113281 -1.367188 0.101562 -1.34375 0.09375 -1.3125 C 0.0625 -1.238281 0.0390625 -1.1875 0.03125 -1.15625 Z M 0.15625 -1.53125 C 0.15625 -1.53125 0.160156 -1.535156 0.171875 -1.546875 C 0.160156 -1.535156 0.15625 -1.53125 0.15625 -1.53125 Z M 0.15625 -1.53125 "/></g></g></g><g fill="#000000" fill-opacity="1"><g transform="translate(106.908205, 38.250965)"><g><path d="M -0.296875 -2.921875 C -0.210938 -2.960938 -0.132812 -2.957031 -0.0625 -2.90625 C 0.0820312 -2.695312 0.226562 -2.492188 0.375 -2.296875 C 0.519531 -2.097656 0.640625 -1.925781 0.734375 -1.78125 C 0.828125 -1.632812 0.898438 -1.53125 0.953125 -1.46875 C 1.003906 -1.40625 1.054688 -1.335938 1.109375 -1.265625 L 1.15625 -1.1875 C 1.15625 -1.164062 1.160156 -1.144531 1.171875 -1.125 C 1.191406 -1.113281 1.207031 -1.101562 1.21875 -1.09375 C 1.21875 -0.988281 1.179688 -0.898438 1.109375 -0.828125 C 1.023438 -0.742188 0.941406 -0.691406 0.859375 -0.671875 C 0.816406 -0.671875 0.765625 -0.722656 0.703125 -0.828125 C 0.679688 -0.847656 0.648438 -0.882812 0.609375 -0.9375 C 0.566406 -0.988281 0.53125 -1.03125 0.5 -1.0625 C 0.476562 -1 0.457031 -0.929688 0.4375 -0.859375 C 0.425781 -0.796875 0.421875 -0.757812 0.421875 -0.75 C 0.421875 -0.738281 0.410156 -0.71875 0.390625 -0.6875 C 0.378906 -0.664062 0.375 -0.65625 0.375 -0.65625 C 0.34375 -0.601562 0.320312 -0.570312 0.3125 -0.5625 C 0.382812 -0.300781 0.394531 -0.125 0.34375 -0.03125 C 0.3125 0.0195312 0.269531 0.0664062 0.21875 0.109375 C 0.164062 0.148438 0.0976562 0.160156 0.015625 0.140625 C -0.0664062 0.140625 -0.179688 -0.00390625 -0.328125 -0.296875 C -0.390625 -0.441406 -0.460938 -0.632812 -0.546875 -0.875 C -0.628906 -1.113281 -0.691406 -1.328125 -0.734375 -1.515625 C -0.835938 -1.929688 -0.882812 -2.3125 -0.875 -2.65625 C -0.863281 -2.707031 -0.847656 -2.753906 -0.828125 -2.796875 C -0.816406 -2.847656 -0.789062 -2.894531 -0.75 -2.9375 C -0.707031 -2.976562 -0.660156 -3.007812 -0.609375 -3.03125 C -0.566406 -3.0625 -0.53125 -3.082031 -0.5 -3.09375 C -0.394531 -3.09375 -0.328125 -3.035156 -0.296875 -2.921875 Z M -0.1875 -1.8125 C -0.113281 -1.675781 -0.0546875 -1.550781 -0.015625 -1.4375 C 0.0234375 -1.320312 0.0664062 -1.222656 0.109375 -1.140625 L 0.296875 -1.328125 C 0.203125 -1.441406 0.113281 -1.554688 0.03125 -1.671875 C -0.0507812 -1.785156 -0.140625 -1.898438 -0.234375 -2.015625 Z M 0.21875 -1.25 C 0.238281 -1.269531 0.265625 -1.296875 0.296875 -1.328125 C 0.273438 -1.304688 0.253906 -1.285156 0.234375 -1.265625 C 0.222656 -1.253906 0.21875 -1.25 0.21875 -1.25 Z M 0.21875 -1.25 "/></g></g></g><g fill="#000000" fill-opacity="1"><g transform="translate(108.255216, 36.903953)"><g><path d="M 0.4375 -0.40625 C 0.46875 -0.332031 0.453125 -0.242188 0.390625 -0.140625 C 0.328125 -0.0546875 0.242188 0.00390625 0.140625 0.046875 C 0.0351562 0.0859375 -0.046875 0.078125 -0.109375 0.015625 C -0.191406 -0.0664062 -0.335938 -0.316406 -0.546875 -0.734375 C -0.859375 -1.359375 -1.035156 -1.847656 -1.078125 -2.203125 C -1.085938 -2.296875 -1.082031 -2.363281 -1.0625 -2.40625 C -1.039062 -2.445312 -1.019531 -2.492188 -1 -2.546875 C -0.976562 -2.597656 -0.953125 -2.648438 -0.921875 -2.703125 C -0.859375 -2.804688 -0.796875 -2.898438 -0.734375 -2.984375 C -0.671875 -3.066406 -0.59375 -3.125 -0.5 -3.15625 C -0.414062 -3.195312 -0.332031 -3.207031 -0.25 -3.1875 C -0.164062 -3.164062 -0.0859375 -3.125 -0.015625 -3.0625 C 0.0546875 -3 0.125 -2.921875 0.1875 -2.828125 C 0.257812 -2.742188 0.316406 -2.644531 0.359375 -2.53125 C 0.410156 -2.425781 0.441406 -2.316406 0.453125 -2.203125 C 0.484375 -1.941406 0.441406 -1.710938 0.328125 -1.515625 L 0.421875 -1.515625 C 0.453125 -1.503906 0.503906 -1.492188 0.578125 -1.484375 C 0.648438 -1.472656 0.71875 -1.457031 0.78125 -1.4375 C 0.851562 -1.425781 0.921875 -1.414062 0.984375 -1.40625 C 1.046875 -1.394531 1.101562 -1.375 1.15625 -1.34375 C 1.257812 -1.300781 1.289062 -1.226562 1.25 -1.125 C 1.238281 -1.03125 1.210938 -0.984375 1.171875 -0.984375 C 1.148438 -0.960938 1.125 -0.953125 1.09375 -0.953125 C 1.070312 -0.960938 1.046875 -0.960938 1.015625 -0.953125 C 0.953125 -0.828125 0.859375 -0.773438 0.734375 -0.796875 C 0.648438 -0.816406 0.578125 -0.835938 0.515625 -0.859375 C 0.460938 -0.890625 0.421875 -0.910156 0.390625 -0.921875 C 0.296875 -0.953125 0.207031 -0.96875 0.125 -0.96875 C 0.15625 -0.914062 0.195312 -0.84375 0.25 -0.75 C 0.300781 -0.632812 0.359375 -0.515625 0.421875 -0.390625 Z M -0.484375 -2.265625 C -0.453125 -2.171875 -0.421875 -2.109375 -0.390625 -2.078125 C -0.359375 -2.003906 -0.328125 -1.921875 -0.296875 -1.828125 C -0.265625 -1.773438 -0.242188 -1.742188 -0.234375 -1.734375 L -0.234375 -1.796875 L -0.203125 -1.859375 C -0.191406 -1.910156 -0.179688 -1.953125 -0.171875 -1.984375 C -0.171875 -2.023438 -0.164062 -2.0625 -0.15625 -2.09375 C -0.15625 -2.175781 -0.179688 -2.265625 -0.234375 -2.359375 C -0.265625 -2.390625 -0.28125 -2.410156 -0.28125 -2.421875 C -0.289062 -2.441406 -0.304688 -2.460938 -0.328125 -2.484375 C -0.347656 -2.523438 -0.390625 -2.535156 -0.453125 -2.515625 C -0.472656 -2.492188 -0.484375 -2.429688 -0.484375 -2.328125 C -0.472656 -2.296875 -0.472656 -2.273438 -0.484375 -2.265625 Z M -0.484375 -2.265625 "/></g></g></g></svg>